# xmcd
#
# Track frame offsets: 
#        150
#        19659
#        33547
#        45559
#        59756
#        77256
#        92796
#        107974
#        118429
#        130012
#
# Disc length: 1932 seconds
#
# Revision: 0
# Processed by: cddbd v1.5.1PL0 Copyright (c) Steve Scherf et al.
# Submitted via: ExactAudioCopy v0.95a5
#
DISCID=84078a0a
DTITLE=Various Artist - Cracked Country Christmas, Vol. 1
DYEAR=1997
DGENRE=Christmas/Holiday
TTITLE0=You Put The X In X-mas
TTITLE1=Santa Smells Like Daddy's Glass Of Beer
TTITLE2=Tree's On Fire
TTITLE3=Wanted: Kris Kringle, Deadbeat Dad
TTITLE4=Frank Jones
TTITLE5=Have Yourself A Willie Nelson Christmas
TTITLE6=I Wonder Who's Jinglin' His Bells Tonight
TTITLE7=Don't Serve Beans
TTITLE8=My Inlaws Made An Outlaw Outa Me
TTITLE9=The Ballad Of The Christmas Day Cowboy
EXTD=
EXTT0=
EXTT1=
EXTT2=
EXTT3=
EXTT4=
EXTT5=
EXTT6=
EXTT7=
EXTT8=
EXTT9=
PLAYORDER=
